<svg xmlns="http://www.w3.org/2000/svg" viewBox="0 0 32 32">
  <rect width="32" height="32" fill="#2B2E2D"/>
  <g transform="translate(8.214 25.250) scale(0.02826 -0.02826)" fill="#F1F0E8">
    <path d="M493 185Q493 237 470.5 272.5Q448 308 411.5 332.0Q375 356 315 383Q248 414 211.5 436.0Q175 458 154.5 488.0Q134 518 134 562Q134 623 171.0 658.5Q208 694 270 694Q373 694 423 591Q448 540 464 473L474 476L464 694H451L427 646Q386 678 350.5 692.0Q315 706 274 706Q215 706 168.5 681.5Q122 657 95.5 613.5Q69 570 69 515Q69 461 93.5 423.5Q118 386 155.0 362.5Q192 339 247 315Q314 286 351.0 264.0Q388 242 409.5 211.0Q431 180 431 135Q431 71 390.5 33.5Q350 -4 278 -4Q194 -4 143 53Q118 81 102.5 119.0Q87 157 72 225L63 223L76 -16H89L110 39Q141 13 185.0 -1.5Q229 -16 276 -16Q338 -16 387.5 10.0Q437 36 465.0 81.5Q493 127 493 185Z"/>
  </g>
</svg>
